<svg width="32" height="32" viewBox="0 0 32 32" fill="none" xmlns="http://www.w3.org/2000/svg">
<path d="M8.67006 9.30027C9.04664 5.53445 12.2155 2.66669 16.0001 2.66669V2.66669C19.7847 2.66669 22.9535 5.53446 23.3301 9.30027L23.7123 13.1218C23.8012 14.0112 23.8457 14.4558 23.9376 14.8874C24.0867 15.5873 24.329 16.264 24.658 16.8995C24.8609 17.2913 25.1088 17.6631 25.6046 18.4068L27.2605 20.8906C28.173 22.2594 28.6292 22.9437 28.3466 23.4719C28.0639 24 27.2414 24 25.5964 24H6.40378C4.75876 24 3.93624 24 3.65359 23.4719C3.37094 22.9437 3.82719 22.2594 4.73968 20.8906L6.39556 18.4068C6.89135 17.6631 7.13925 17.2913 7.34214 16.8995C7.6712 16.264 7.91351 15.5873 8.06258 14.8874C8.1545 14.4558 8.19897 14.0112 8.2879 13.1218L8.67006 9.30027Z" fill="#FACC15"/>
<path d="M13.4243 27.5059C13.5762 27.6476 13.911 27.7729 14.3767 27.8622C14.8424 27.9516 15.4131 28 16.0001 28C16.5871 28 17.1577 27.9516 17.6234 27.8622C18.0892 27.7729 18.424 27.6476 18.5759 27.5059" stroke="#FACC15" stroke-width="2" stroke-linecap="round"/>
</svg>
