<svg width="32" height="32" viewBox="0 0 32 32" fill="none" xmlns="http://www.w3.org/2000/svg">
<path d="M25.7678 7.7036L26.1835 7.42582L26.1835 7.42582L25.7678 7.7036ZM25.7678 21.6297L26.1835 21.9075L26.1835 21.9075L25.7678 21.6297ZM24.2963 23.1011L24.0185 22.6854L24.0185 22.6854L24.2963 23.1011ZM18.6666 23.9982L18.6644 23.4982C18.3891 23.4994 18.1666 23.7229 18.1666 23.9982H18.6666ZM18.6666 24L19.1138 24.2236C19.1485 24.1542 19.1666 24.0776 19.1666 24H18.6666ZM16.8943 27.5445L17.3416 27.7681L17.3416 27.7681L16.8943 27.5445ZM15.1055 27.5445L14.6583 27.7681L14.6583 27.7681L15.1055 27.5445ZM13.3333 24H12.8333C12.8333 24.0776 12.8513 24.1542 12.886 24.2236L13.3333 24ZM13.3333 23.9982H13.8333C13.8333 23.7229 13.6107 23.4994 13.3354 23.4982L13.3333 23.9982ZM7.70354 23.1011L7.98133 22.6854L7.98133 22.6854L7.70354 23.1011ZM6.23208 21.6297L6.64782 21.3519L6.64782 21.3519L6.23208 21.6297ZM6.23208 7.7036L6.64782 7.98139L6.64782 7.98139L6.23208 7.7036ZM7.70354 6.23214L7.98133 6.64788L7.98133 6.64788L7.70354 6.23214ZM24.2963 6.23214L24.0185 6.64788L24.0185 6.64788L24.2963 6.23214ZM27.1666 14.6666C27.1666 12.8044 27.1672 11.3701 27.0517 10.2345C26.9353 9.09052 26.697 8.19426 26.1835 7.42582L25.352 7.98139C25.7374 8.55814 25.9485 9.27079 26.0568 10.3357C26.166 11.409 26.1666 12.7836 26.1666 14.6666H27.1666ZM26.1835 21.9075C26.697 21.139 26.9353 20.2428 27.0517 19.0988C27.1672 17.9631 27.1666 16.5289 27.1666 14.6666H26.1666C26.1666 16.5497 26.166 17.9243 26.0568 18.9976C25.9485 20.0625 25.7374 20.7752 25.352 21.3519L26.1835 21.9075ZM24.5741 23.5169C25.211 23.0913 25.7579 22.5444 26.1835 21.9075L25.352 21.3519C24.9994 21.8797 24.5463 22.3328 24.0185 22.6854L24.5741 23.5169ZM18.6688 24.4982C20.1049 24.4919 21.2498 24.4644 22.1881 24.3347C23.1344 24.2039 23.9029 23.9654 24.5741 23.5169L24.0185 22.6854C23.5146 23.0221 22.9067 23.2258 22.0512 23.3441C21.1876 23.4635 20.1053 23.4919 18.6644 23.4982L18.6688 24.4982ZM19.1666 24V23.9982H18.1666V24H19.1666ZM17.3416 27.7681L19.1138 24.2236L18.2194 23.7764L16.4471 27.3209L17.3416 27.7681ZM14.6583 27.7681C15.2111 28.8736 16.7888 28.8736 17.3416 27.7681L16.4471 27.3209C16.2629 27.6894 15.737 27.6894 15.5527 27.3209L14.6583 27.7681ZM12.886 24.2236L14.6583 27.7681L15.5527 27.3209L13.7805 23.7764L12.886 24.2236ZM12.8333 23.9982V24H13.8333V23.9982H12.8333ZM7.42576 23.5169C8.09698 23.9654 8.86546 24.2039 9.81176 24.3347C10.75 24.4644 11.895 24.4919 13.3311 24.4982L13.3354 23.4982C11.8946 23.4919 10.8123 23.4635 9.94869 23.3441C9.09315 23.2258 8.48524 23.0221 7.98133 22.6854L7.42576 23.5169ZM5.81635 21.9075C6.24194 22.5444 6.78882 23.0913 7.42576 23.5169L7.98133 22.6854C7.45358 22.3328 7.00045 21.8797 6.64782 21.3519L5.81635 21.9075ZM4.83325 14.6666C4.83325 16.5289 4.83265 17.9631 4.94817 19.0988C5.06455 20.2428 5.30289 21.139 5.81635 21.9075L6.64782 21.3519C6.26244 20.7752 6.05137 20.0625 5.94304 18.9976C5.83386 17.9243 5.83325 16.5497 5.83325 14.6666H4.83325ZM5.81635 7.42582C5.30289 8.19426 5.06455 9.09052 4.94817 10.2345C4.83265 11.3701 4.83325 12.8044 4.83325 14.6666H5.83325C5.83325 12.7836 5.83386 11.409 5.94304 10.3357C6.05137 9.27079 6.26244 8.55814 6.64782 7.98139L5.81635 7.42582ZM7.42576 5.81641C6.78882 6.242 6.24194 6.78888 5.81635 7.42582L6.64782 7.98139C7.00045 7.45364 7.45358 7.00051 7.98133 6.64788L7.42576 5.81641ZM14.6666 4.83331C12.8044 4.83331 11.3701 4.83271 10.2344 4.94823C9.09046 5.06461 8.1942 5.30295 7.42576 5.81641L7.98133 6.64788C8.55808 6.26251 9.27073 6.05143 10.3357 5.9431C11.4089 5.83392 12.7836 5.83331 14.6666 5.83331V4.83331ZM17.3333 4.83331H14.6666V5.83331H17.3333V4.83331ZM24.5741 5.81641C23.8056 5.30295 22.9094 5.06461 21.7654 4.94823C20.6298 4.83271 19.1955 4.83331 17.3333 4.83331V5.83331C19.2163 5.83331 20.5909 5.83392 21.6642 5.9431C22.7291 6.05143 23.4418 6.26251 24.0185 6.64788L24.5741 5.81641ZM26.1835 7.42582C25.7579 6.78888 25.211 6.242 24.5741 5.81641L24.0185 6.64788C24.5463 7.00051 24.9994 7.45364 25.352 7.98139L26.1835 7.42582Z" fill="#FACC15"/>
<circle cx="21.3333" cy="14.6666" r="1.33333" fill="#FACC15" stroke="#FACC15" stroke-linecap="round"/>
<circle cx="16.0001" cy="14.6666" r="1.33333" fill="#FACC15" stroke="#FACC15" stroke-linecap="round"/>
<circle cx="10.6666" cy="14.6666" r="1.33333" fill="#FACC15" stroke="#FACC15" stroke-linecap="round"/>
</svg>
