<svg width="32" height="32" viewBox="0 0 32 32" fill="none" xmlns="http://www.w3.org/2000/svg">
<path d="M6.66675 17.0128C6.66675 15.2024 6.66675 14.2973 7.0327 13.5016C7.39864 12.706 8.0859 12.1169 9.46042 10.9387L10.7938 9.79588C13.2782 7.66638 14.5204 6.60162 16.0001 6.60162C17.4798 6.60162 18.722 7.66638 21.2064 9.79588L22.5397 10.9387C23.9143 12.1169 24.6015 12.706 24.9675 13.5016C25.3334 14.2973 25.3334 15.2024 25.3334 17.0128V22.6666C25.3334 25.1808 25.3334 26.4379 24.5524 27.2189C23.7713 28 22.5142 28 20.0001 28H12.0001C9.48592 28 8.22885 28 7.4478 27.2189C6.66675 26.4379 6.66675 25.1808 6.66675 22.6666V17.0128Z" stroke="#FACC15" stroke-width="2"/>
<path d="M19.3334 28V21C19.3334 20.4477 18.8857 20 18.3334 20H13.6667C13.1145 20 12.6667 20.4477 12.6667 21V28" stroke="#FACC15" stroke-width="2" stroke-linecap="round" stroke-linejoin="round"/>
</svg>
