<svg width="20" height="20" viewBox="0 0 20 20" fill="none" xmlns="http://www.w3.org/2000/svg">
<path d="M4.99811 8.2467L5.43298 9.00772C5.70983 9.4922 5.84825 9.73444 5.84825 10C5.84825 10.2656 5.70983 10.5078 5.43299 10.9923L5.43298 10.9923L4.99811 11.7533C3.75981 13.9203 3.14066 15.0039 3.62348 15.5412C4.1063 16.0785 5.24961 15.5783 7.53623 14.5779L13.8119 11.8323C15.6074 11.0468 16.5051 10.654 16.5051 10C16.5051 9.34598 15.6074 8.95322 13.8119 8.16769L7.53624 5.4221C5.24962 4.42171 4.1063 3.92151 3.62348 4.45883C3.14066 4.99615 3.75981 6.07966 4.99811 8.2467Z" fill="#FFC900"/>
</svg>
